<svg xmlns="http://www.w3.org/2000/svg" width="303.692" height="320.697" viewBox="0 0 303.692 320.697">
  <g id="man" transform="translate(-186.5 0)">
    <path id="Path_1" data-name="Path 1" d="M377.115,652.015c7.594,14.084,23.712,20.13,23.712,20.13s3.805-16.789-3.789-30.873-23.712-20.13-23.712-20.13S369.521,637.93,377.115,652.015Z" transform="translate(-165.175 -355.911)" fill="#191818"/>
    <path id="Path_2" data-name="Path 2" d="M369.161,660.407c13.711,8.249,18.992,24.634,18.992,24.634s-16.949,3.011-30.66-5.239S338.5,655.169,338.5,655.169,355.449,652.158,369.161,660.407Z" transform="translate(-152 -368.937)" fill="#f8efef"/>
    <path id="Path_3" data-name="Path 3" d="M765.569,210.507l25.053-4.888s6.11-20.776,13.443-18.332-4.888,23.22-4.888,23.22l-34.83,15.887Z" transform="translate(-317.633 -187.086)" fill="#a0616a"/>
    <path id="Path_4" data-name="Path 4" d="M502.75,259.414l-11,14.054s-15.887-.611-11,7.944,15.887,3.666,16.5,1.833,18.332-17.721,18.332-17.721Z" transform="translate(-206.966 -215.218)" fill="#a0616a"/>
    <path id="Path_5" data-name="Path 5" d="M590.847,229.515l9.166-4.888s39.107-3.055,53.772,6.722-61.716,11-61.716,11Z" transform="translate(-250.15 -201.512)" fill="#720303"/>
    <path id="Path_6" data-name="Path 6" d="M618.254,209.887s-4.888-11.61,1.833-12.832a30.167,30.167,0,0,1,11.61,0l-7.333,6.111Z" transform="translate(-260.142 -190.744)" fill="#3f3d56"/>
    <path id="Path_7" data-name="Path 7" d="M618.254,209.887s-4.888-11.61,1.833-12.832a30.167,30.167,0,0,1,11.61,0l-7.333,6.111Z" transform="translate(-260.142 -190.744)" opacity="0.1"/>
    <path id="Path_8" data-name="Path 8" d="M543.5,332.636l-17.72-1.222,3.055,5.5s-24.442,7.333-16.5,28.108S532.5,405.351,532.5,405.351l7.944,15.276s16.5,2.444,17.109-2.444,0-7.333-3.055-9.777a14.968,14.968,0,0,1-4.888-9.777c0-2.444.611-4.888-1.222-6.111s-2.444-3.055-2.444-6.722-6.722-17.109-6.722-17.109,21.387-.611,28.108,4.888,28.719,26.275,28.719,26.275a18.514,18.514,0,0,1,3.055,4.277c1.222,2.444,1.222,3.666,3.666,4.888s.611,6.111,0,6.722-6.722,25.053-6.722,25.053-6.722,11.61.611,12.221,14.054,1.222,14.665,0a33.224,33.224,0,0,1,2.444-4.888c1.833-3.055,0-9.777,0-9.777s17.721-22.609,12.221-36.663-17.109-45.829-17.109-45.829l-17.721-7.333-32.386-11.61Z" transform="translate(-218.996 -243.222)" fill="#191818"/>
    <path id="Path_9" data-name="Path 9" d="M553.711,472.068s-3.666,14.054-4.888,14.665-14.665,12.221-5.5,14.054,15.887,1.222,17.721-.611,1.222-3.666,4.277-4.277,8.555-2.444,7.944-6.722-3.666-15.887-5.5-17.109S553.711,472.068,553.711,472.068Z" transform="translate(-230.429 -297.718)" fill="#191818"/>
    <path id="Path_10" data-name="Path 10" d="M647.2,523.414s-5.5,4.277-2.444,12.221,7.333,16.5,7.333,16.5,4.888,15.276,12.832,12.832c3.227-.993,4.841-3.7,5.619-6.565a15.7,15.7,0,0,0-2.219-12.777L663.7,538.69l-4.888-12.832Z" transform="translate(-270.76 -317.9)" fill="#191818"/>
    <path id="Path_11" data-name="Path 11" d="M616.815,229.352s-7.333-.611-8.555,1.222-6.722,26.275,0,28.719,26.886,6.722,29.942,3.666,4.277-29.942,4.277-29.942Z" transform="translate(-255.648 -203.487)" fill="#a0616a"/>
    <path id="Path_12" data-name="Path 12" d="M616.815,229.352s-7.333-.611-8.555,1.222-6.722,26.275,0,28.719,26.886,6.722,29.942,3.666,4.277-29.942,4.277-29.942Z" transform="translate(-255.648 -203.487)" opacity="0.1"/>
    <path id="Path_13" data-name="Path 13" d="M579.759,259.3s8.555,8.555,14.054,7.333,18.332-6.722,19.554-9.166,16.5-3.055,16.5-3.055l-16.5,45.829,11.61,38.5s6.722-7.944-11.61-8.555-42.774-9.777-47.051-22c0,0-26.886-3.666-28.108-4.277s3.055-4.277,3.055-4.277l17.721-4.888,12.832-16.5Z" transform="translate(-229.591 -213.273)" fill="#f2f2f2"/>
    <path id="Path_14" data-name="Path 14" d="M580.929,228.688s3.055-4.277,0-4.277-11.61,0-14.665.611-14.665-2.444-15.887,1.222-1.222,26.275,1.222,28.108,3.666,1.833.611,5.5-10.388,15.887-8.555,20.165-19.554,5.5-16.5,10.388a10.036,10.036,0,0,0,7.944,4.888s1.222-9.777,8.555-4.888,17.109,17.109,25.053,9.166,11-15.276,11.61-25.664,0-17.109-1.222-23.22S580.929,228.688,580.929,228.688Z" transform="translate(-225.261 -201.601)" fill="#720303"/>
    <path id="Path_15" data-name="Path 15" d="M660.165,241.728s4.888,4.277,0,14.665-17.72,34.83-7.333,50.717,14.665,20.165,12.221,23.22a11.869,11.869,0,0,0-2.444,6.722l6.722-2.444A76.9,76.9,0,0,1,673,319.942c2.444-6.111-4.888-24.442-4.888-24.442l2.444-23.831s9.777-15.276,11-15.887-2.444-26.886-2.444-26.886-6.111-1.833-9.166,0S660.165,241.728,660.165,241.728Z" transform="translate(-272.723 -203.031)" fill="#720303"/>
    <path id="Path_16" data-name="Path 16" d="M546.867,228.414H543.2l-25.053,12.832s-1.833-7.944-3.055-6.111-.611,6.722-3.666,7.944-4.888,3.055,0,5.5,5.5.611,5.5,4.888,3.666,4.888,6.722,3.666,3.666-1.833,6.722-.611,1.222,3.055,5.5,1.222,15.276-1.222,15.276-1.222Z" transform="translate(-218.086 -203.161)" fill="#720303"/>
    <path id="Path_17" data-name="Path 17" d="M691.347,227.55l4.277-1.222s12.832,1.222,15.887,1.222,6.111-.611,7.944-.611,11-1.222,12.221-2.444,6.722-4.277,7.333-2.444,7.333,13.443,1.222,18.943-7.333,3.055-11,5.5-33,7.333-33.608,6.722S691.347,227.55,691.347,227.55Z" transform="translate(-289.24 -200.463)" fill="#720303"/>
    <ellipse id="Ellipse_1" data-name="Ellipse 1" cx="18.332" cy="18.332" rx="18.332" ry="18.332" transform="translate(358.723 13.643)" fill="#a0616a"/>
    <path id="Path_18" data-name="Path 18" d="M624.719,231.885a3.472,3.472,0,0,1,.379,1.283,4.8,4.8,0,0,0,4.593,3.7,2.868,2.868,0,0,0,2.487,3.473,15.8,15.8,0,0,0,2.724-5.333,4.9,4.9,0,0,1,.92-2.091,4.2,4.2,0,0,1,2.609-.981,137.2,137.2,0,0,1,14.7-1.1,3.655,3.655,0,0,0,1.933-.4c1.381-.89.92-3.037.048-4.43a13.863,13.863,0,0,0-7.393-5.769,34.992,34.992,0,0,0-6.808-1.128,83.947,83.947,0,0,0-9.2-.956,15.063,15.063,0,0,0-8.8,2.354c-1.837,1.295-4.853,4.924-3.377,7.213.236.367.982.547,1.3.921.432.509.434,1.277.925,1.739C622.576,231.161,624.061,230.917,624.719,231.885Z" transform="translate(-261.154 -199.173)" fill="#2f2e41"/>
    <path id="Path_19" data-name="Path 19" d="M638.217,189.414s-20.776,7.333-18.943,17.721,7.333,22.609,18.943,22,17.72-13.248,17.72-13.248l-3.055-17.3S641.272,189.414,638.217,189.414Z" transform="translate(-261.162 -187.992)" fill="#3f3d56"/>
    <path id="Path_20" data-name="Path 20" d="M646.057,246.032s8.168-8.862,12.28-3.723C658.337,242.309,658.15,242.055,646.057,246.032Z" transform="translate(-271.624 -207.941)" fill="#2f2e41"/>
    <path id="Path_21" data-name="Path 21" d="M606.965,586.289c-10.954,0-24.506-3.629-37.713-16.744-32.331-32.11-63.047-35.331-63.353-35.36l.114-1.217c.311.029,31.462,3.294,64.1,35.709,16.771,16.657,34.082,17.677,45.65,15.6a57.05,57.05,0,0,0,21.386-8.619l.722.986a58.32,58.32,0,0,1-21.844,8.827A51.016,51.016,0,0,1,606.965,586.289Z" transform="translate(-217.11 -321.616)" fill="#4a4a4a"/>
    <ellipse id="Ellipse_2" data-name="Ellipse 2" cx="7.333" cy="7.333" rx="7.333" ry="7.333" transform="translate(297.923 223.54)" fill="#720303"/>
    <ellipse id="Ellipse_3" data-name="Ellipse 3" cx="7.333" cy="7.333" rx="7.333" ry="7.333" transform="translate(349.863 257.759)" fill="#720303"/>
    <path id="Path_22" data-name="Path 22" d="M652.3,645.209q-22.289-3.489-42.861-5.936l5.281-10.562c-1.833-.611-9.777,5.5-9.777,5.5l6.722-30.553c-9.166,1.222-13.443,32.386-13.443,32.386l-10.388-10.388,5.114,11.761a947.026,947.026,0,0,0-108.624-5.47l4.52-9.04c-1.833-.611-9.777,5.5-9.777,5.5l6.722-30.553c-9.166,1.222-13.443,32.386-13.443,32.386l-10.388-10.388,5.416,12.457a609.736,609.736,0,0,0-62.341,5.02c4.51-14.052,20.262-27.559,20.262-27.559-12.111,3.768-18.412,9.907-21.674,15.6a245.376,245.376,0,0,1,13.119-84.951s-24.442,54.995-20.776,91.658l.465,6.513c-21.264,3.317-31.934,6.625-31.934,6.625Z" transform="translate(-162.113 -324.512)" fill="#191818"/>
  </g>
</svg>
