<svg xmlns="http://www.w3.org/2000/svg" width="497" height="524.827" viewBox="0 0 497 524.827">
  <g id="Group_1" data-name="Group 1" transform="translate(-186.5 0)">
    <path id="Path_1" data-name="Path 1" d="M380.134,671.666c12.428,23.049,38.806,32.943,38.806,32.943s6.227-27.475-6.2-50.524-38.806-32.943-38.806-32.943S367.706,648.617,380.134,671.666Z" transform="translate(-152 -187.086)" fill="#191818"/>
    <path id="Path_2" data-name="Path 2" d="M388.677,664.083c22.438,13.5,31.08,40.314,31.08,40.314s-27.738,4.927-50.177-8.573S338.5,655.51,338.5,655.51,366.238,650.583,388.677,664.083Z" transform="translate(-152 -187.086)" fill="#f8efef"/>
    <path id="Path_3" data-name="Path 3" d="M766.347,225.414l41-8s10-34,22-30-8,38-8,38l-57,26Z" transform="translate(-152 -187.086)" fill="#a0616a"/>
    <path id="Path_4" data-name="Path 4" d="M517.347,259.414l-18,23s-26-1-18,13,26,6,27,3,30-29,30-29Z" transform="translate(-152 -187.086)" fill="#a0616a"/>
    <path id="Path_5" data-name="Path 5" d="M590.847,232.914l15-8s64-5,88,11-101,18-101,18Z" transform="translate(-152 -187.086)" fill="#720303"/>
    <path id="Path_6" data-name="Path 6" d="M619.347,218.414s-8-19,3-21a49.37,49.37,0,0,1,19,0l-12,10Z" transform="translate(-152 -187.086)" fill="#3f3d56"/>
    <path id="Path_7" data-name="Path 7" d="M619.347,218.414s-8-19,3-21a49.37,49.37,0,0,1,19,0l-12,10Z" transform="translate(-152 -187.086)" opacity="0.1"/>
    <path id="Path_8" data-name="Path 8" d="M564.347,333.414l-29-2,5,9s-40,12-27,46,33,66,33,66l13,25s27,4,28-4,0-12-5-16-8-12-8-16,1-8-2-10-4-5-4-11-11-28-11-28,35-1,46,8,47,43,47,43a30.3,30.3,0,0,1,5,7c2,4,2,6,6,8s1,10,0,11-11,41-11,41-11,19,1,20,23,2,24,0a54.364,54.364,0,0,1,4-8c3-5,0-16,0-16s29-37,20-60-28-75-28-75l-29-12-53-19Z" transform="translate(-152 -187.086)" fill="#191818"/>
    <path id="Path_9" data-name="Path 9" d="M562.347,472.414s-6,23-8,24-24,20-9,23,26,2,29-1,2-6,7-7,14-4,13-11-6-26-9-28S562.347,472.414,562.347,472.414Z" transform="translate(-152 -187.086)" fill="#191818"/>
    <path id="Path_10" data-name="Path 10" d="M649.347,523.414s-9,7-4,20,12,27,12,27,8,25,21,21c5.281-1.625,7.922-6.056,9.2-10.744a25.7,25.7,0,0,0-3.632-20.91l-7.564-11.346-8-21Z" transform="translate(-152 -187.086)" fill="#191818"/>
    <path id="Path_11" data-name="Path 11" d="M624.347,229.414s-12-1-14,2-11,43,0,47,44,11,49,6,7-49,7-49Z" transform="translate(-152 -187.086)" fill="#a0616a"/>
    <path id="Path_12" data-name="Path 12" d="M624.347,229.414s-12-1-14,2-11,43,0,47,44,11,49,6,7-49,7-49Z" transform="translate(-152 -187.086)" opacity="0.1"/>
    <path id="Path_13" data-name="Path 13" d="M606.347,262.414s14,14,23,12,30-11,32-15,27-5,27-5l-27,75,19,63s11-13-19-14-70-16-77-36c0,0-44-6-46-7s5-7,5-7l29-8,21-27Z" transform="translate(-152 -187.086)" fill="#f2f2f2"/>
    <path id="Path_14" data-name="Path 14" d="M615.347,231.414s5-7,0-7-19,0-24,1-24-4-26,2-2,43,2,46,6,3,1,9-17,26-14,33-32,9-27,17a16.425,16.425,0,0,0,13,8s2-16,14-8,28,28,41,15,18-25,19-42,0-28-2-38S615.347,231.414,615.347,231.414Z" transform="translate(-152 -187.086)" fill="#720303"/>
    <path id="Path_15" data-name="Path 15" d="M667.347,250.414s8,7,0,24-29,57-12,83,24,33,20,38a19.425,19.425,0,0,0-4,11l11-4s2-14,6-24-8-40-8-40l4-39s16-25,18-26-4-44-4-44-10-3-15,0S667.347,250.414,667.347,250.414Z" transform="translate(-152 -187.086)" fill="#720303"/>
    <path id="Path_16" data-name="Path 16" d="M571.347,228.414h-6l-41,21s-3-13-5-10-1,11-6,13-8,5,0,9,9,1,9,8,6,8,11,6,6-3,11-1,2,5,9,2,25-2,25-2Z" transform="translate(-152 -187.086)" fill="#720303"/>
    <path id="Path_17" data-name="Path 17" d="M691.347,231.414l7-2s21,2,26,2,10-1,13-1,18-2,20-4,11-7,12-4,12,22,2,31-12,5-18,9-54,12-55,11S691.347,231.414,691.347,231.414Z" transform="translate(-152 -187.086)" fill="#720303"/>
    <circle id="Ellipse_1" data-name="Ellipse 1" cx="30" cy="30" r="30" transform="translate(468.347 22.327)" fill="#a0616a"/>
    <path id="Path_18" data-name="Path 18" d="M628.271,240.62a5.682,5.682,0,0,1,.62,2.1,7.854,7.854,0,0,0,7.517,6.056,4.694,4.694,0,0,0,4.07,5.683,25.861,25.861,0,0,0,4.457-8.727,8.012,8.012,0,0,1,1.506-3.422c1.065-1.13,2.73-1.407,4.27-1.6a224.534,224.534,0,0,1,24.062-1.793,5.982,5.982,0,0,0,3.164-.647c2.261-1.457,1.506-4.97.078-7.25a22.687,22.687,0,0,0-12.1-9.441c-3.587-1.165-7.4-1.409-11.142-1.846-5.017-.586-10.011-1.535-15.062-1.564s-10.274.942-14.4,3.852c-3.007,2.119-7.941,8.058-5.527,11.8.387.6,1.608.9,2.127,1.507.707.832.71,2.09,1.513,2.846C624.764,239.435,627.2,239.035,628.271,240.62Z" transform="translate(-152 -187.086)" fill="#2f2e41"/>
    <path id="Path_19" data-name="Path 19" d="M650.347,189.414s-34,12-31,29,12,37,31,36,29-21.681,29-21.681l-5-28.319S655.347,189.414,650.347,189.414Z" transform="translate(-152 -187.086)" fill="#3f3d56"/>
    <path id="Path_20" data-name="Path 20" d="M646.057,249.422s13.367-14.5,20.1-6.093C666.153,243.329,665.847,242.914,646.057,249.422Z" transform="translate(-152 -187.086)" fill="#2f2e41"/>
    <path id="Path_21" data-name="Path 21" d="M671.3,620.229c-17.926,0-40.1-5.938-61.718-27.4C556.668,540.278,506.4,535.007,505.9,534.96l.187-1.992c.509.048,51.488,5.391,104.9,58.438,27.446,27.259,55.775,28.929,74.707,25.527a93.364,93.364,0,0,0,35-14.106l1.182,1.613a95.443,95.443,0,0,1-35.748,14.446,83.5,83.5,0,0,1-14.832,1.341Z" transform="translate(-152 -187.086)" fill="#4a4a4a"/>
    <circle id="Ellipse_2" data-name="Ellipse 2" cx="12" cy="12" r="12" transform="translate(368.847 365.827)" fill="#4a4a4a"/>
    <circle id="Ellipse_3" data-name="Ellipse 3" cx="12" cy="12" r="12" transform="translate(453.847 421.827)" fill="#4a4a4a"/>
    <path id="Path_22" data-name="Path 22" d="M835.5,711.914q-36.476-5.71-70.143-9.714L774,684.914c-3-1-16,9-16,9l11-50c-15,2-22,53-22,53l-17-17,8.368,19.247c-68.681-7.217-127.947-9.469-177.766-8.952l7.4-14.795c-3-1-16,9-16,9l11-50c-15,2-22,53-22,53l-17-17,8.863,20.386a997.83,997.83,0,0,0-102.023,8.216c7.381-23,33.159-45.1,33.159-45.1-19.821,6.166-30.132,16.212-35.469,25.525A401.561,401.561,0,0,1,450,540.414s-40,90-34,150l.761,10.658c-34.8,5.428-52.261,10.842-52.261,10.842Z" transform="translate(-152 -187.086)" fill="#191818"/>
  </g>
</svg>
